{
  "asset": {
    "generator": "Khronos glTF Blender I/O v4.1.63",
    "version": "2.0"
  },
  "extensionsUsed": [
    "KHR_materials_transmission",
    "KHR_materials_specular"
  ],
  "scene": 0,
  "scenes": [
    {
      "name": "Scene",
      "nodes": [
        0,
        1,
        2,
        3,
        4,
        5,
        6,
        7,
        8,
        9,
        10,
        11,
        12,
        13,
        14
      ]
    }
  ],
  "nodes": [
    {
      "name": "Scene Collection"
    },
    {
      "mesh": 0,
      "name": "水面",
      "scale": [
        2.380535840988159,
        1.2620114088058472,
        2.380535840988159
      ],
      "translation": [
        0,
        -0.49592745304107666,
        0
      ]
    },
    {
      "name": "Collection"
    },
    {
      "name": "岛屿"
    },
    {
      "mesh": 1,
      "name": "岛屿底部",
      "scale": [
        0.25482407212257385,
        0.49990561604499817,
        0.4929509162902832
      ],
      "translation": [
        0.6310731768608093,
        0.8651906847953796,
        -1.3988823890686035
      ]
    },
    {
      "name": "2船"
    },
    {
      "mesh": 2,
      "name": "2船底",
      "rotation": [
        0,
        0.7071068286895752,
        0,
        0.7071068286895752
      ],
      "scale": [
        0.699999988079071,
        0.699999988079071,
        0.699999988079071
      ],
      "translation": [
        -0.1234506368637085,
        0.2061205506324768,
        4.273128509521484
      ]
    },
    {
      "mesh": 3,
      "name": "2船.复制",
      "rotation": [
        0,
        0.7071068286895752,
        0,
        0.7071068286895752
      ],
      "scale": [
        0.699999988079071,
        0.699999988079071,
        0.699999988079071
      ],
      "translation": [
        -0.17745757102966309,
        -0.13406145572662354,
        4.197021484375
      ]
    },
    {
      "mesh": 4,
      "name": "2船.001",
      "rotation": [
        0,
        0.7071068286895752,
        0,
        0.7071068286895752
      ],
      "scale": [
        0.699999988079071,
        0.699999988079071,
        0.699999988079071
      ],
      "translation": [
        -0.1234506368637085,
        0.20518958568572998,
        4.273128509521484
      ]
    },
    {
      "mesh": 5,
      "name": "2船.002",
      "rotation": [
        0,
        0.7071068286895752,
        0,
        0.7071068286895752
      ],
      "scale": [
        0.699999988079071,
        0.699999988079071,
        0.699999988079071
      ],
      "translation": [
        -0.1234506368637085,
        0.20518958568572998,
        4.273128509521484
      ]
    },
    {
      "mesh": 6,
      "name": "2船.003",
      "rotation": [
        0,
        0.7071068286895752,
        0,
        0.7071068286895752
      ],
      "scale": [
        0.699999988079071,
        0.699999988079071,
        0.699999988079071
      ],
      "translation": [
        -0.1234506368637085,
        0.20518958568572998,
        4.273128509521484
      ]
    },
    {
      "mesh": 7,
      "name": "旗帜",
      "rotation": [
        0.7068181037902832,
        -0.7068181037902832,
        -0.020203428342938423,
        0.020203430205583572
      ],
      "scale": [
        0.699999988079071,
        0.7000001072883606,
        0.7000001072883606
      ],
      "translation": [
        0.7767030000686646,
        1.947035312652588,
        4.685456275939941
      ]
    },
    {
      "mesh": 8,
      "name": "桅杆",
      "rotation": [
        0,
        -0.9995917677879333,
        0,
        0.0285719633102417
      ],
      "scale": [
        0.7000001072883606,
        0.699999988079071,
        0.7000001072883606
      ],
      "translation": [
        0.835283637046814,
        0.9767547845840454,
        4.482831001281738
      ]
    },
    {
      "mesh": 9,
      "name": "GN Instance",
      "rotation": [
        0,
        -0.9995917677879333,
        0,
        0.0285719633102417
      ],
      "scale": [
        0.7000001072883606,
        0.699999988079071,
        0.7000001072883606
      ],
      "translation": [
        0.835283637046814,
        0.9767547845840454,
        4.482831001281738
      ]
    },
    {
      "mesh": 10,
      "name": "船板.001",
      "rotation": [
        0,
        0.7071068286895752,
        0,
        0.7071068286895752
      ],
      "scale": [
        1.6847586631774902,
        0.699999988079071,
        0.2935214042663574
      ],
      "translation": [
        -0.1234506368637085,
        0.5426449775695801,
        4.273128509521484
      ]
    }
  ],
  "materials": [
    {
      "doubleSided": true,
      "extensions": {
        "KHR_materials_transmission": {
          "transmissionFactor": 0.20000000298023224
        },
        "KHR_materials_specular": {
          "specularColorFactor": [
            6.0,
            6.0,
            6.0
          ]
        }
      },
      "name": "水面",
      "pbrMetallicRoughness": {
        "baseColorFactor": [
          0.3365311026573181,
          0.7922868132591248,
          0.8000858426094055,
          0.5127269625663757
        ],
        "metallicFactor": 0,
        "roughnessFactor": 0
      }
    },
    {
      "doubleSided": true,
      "name": "底座",
      "pbrMetallicRoughness": {
        "baseColorFactor": [
          0.6038239598274231,
          0.31854721903800964,
          0.03310486674308777,
          1
        ],
        "metallicFactor": 0,
        "roughnessFactor": 0.5
      }
    },
    {
      "doubleSided": true,
      "name": "草",
      "pbrMetallicRoughness": {
        "baseColorFactor": [
          0.3185446858406067,
          0.6038280725479126,
          0.033104926347732544,
          1
        ],
        "metallicFactor": 0,
        "roughnessFactor": 0.5
      }
    },
    {
      "doubleSided": true,
      "name": "船身",
      "pbrMetallicRoughness": {
        "baseColorFactor": [
          0.31854507327079773,
          0.1328684687614441,
          0.03310482203960419,
          1
        ],
        "metallicFactor": 0,
        "roughnessFactor": 0.5
      }
    },
    {
      "alphaMode": "BLEND",
      "doubleSided": true,
      "name": "材质.007",
      "pbrMetallicRoughness": {
        "baseColorFactor": [
          0.132866770029068,
          0.6038278937339783,
          0.6038275361061096,
          1
        ],
        "metallicFactor": 0,
        "roughnessFactor": 0.5
      }
    },
    {
      "doubleSided": true,
      "name": "材质.006",
      "pbrMetallicRoughness": {
        "baseColorFactor": [
          0.6312540769577026,
          0.9933919906616211,
          0.2904650866985321,
          1
        ],
        "metallicFactor": 0,
        "roughnessFactor": 0.5
      }
    },
    {
      "doubleSided": true,
      "name": "船.001",
      "pbrMetallicRoughness": {
        "baseColorFactor": [
          0.31854507327079773,
          0.1328684687614441,
          0.03310482203960419,
          1
        ],
        "metallicFactor": 0,
        "roughnessFactor": 0.5
      }
    }
  ],
  "meshes": [
    {
      "name": "平面.014",
      "primitives": [
        {
          "attributes": {
            "POSITION": 0,
            "NORMAL": 1,
            "TEXCOORD_0": 2
          },
          "indices": 3,
          "material": 0
        }
      ]
    },
    {
      "name": "Vert",
      "primitives": [
        {
          "attributes": {
            "POSITION": 4,
            "NORMAL": 5
          },
          "indices": 6,
          "material": 1
        },
        {
          "attributes": {
            "POSITION": 4,
            "NORMAL": 5
          },
          "indices": 7,
          "material": 2
        }
      ]
    },
    {
      "name": "平面.001",
      "primitives": [
        {
          "attributes": {
            "POSITION": 8,
            "NORMAL": 9,
            "TEXCOORD_0": 10
          },
          "indices": 11,
          "material": 3
        }
      ]
    },
    {
      "name": "平面.002",
      "primitives": [
        {
          "attributes": {
            "POSITION": 12,
            "NORMAL": 13,
            "TEXCOORD_0": 14
          },
          "indices": 15
        }
      ]
    },
    {
      "name": "平面.011",
      "primitives": [
        {
          "attributes": {
            "POSITION": 16,
            "NORMAL": 17,
            "TEXCOORD_0": 18,
            "TANGENT": 19
          },
          "indices": 20,
          "material": 4
        }
      ]
    },
    {
      "name": "平面.012",
      "primitives": [
        {
          "attributes": {
            "POSITION": 21,
            "NORMAL": 22,
            "TEXCOORD_0": 23,
            "TANGENT": 24
          },
          "indices": 25,
          "material": 3
        }
      ]
    },
    {
      "name": "平面.013",
      "primitives": [
        {
          "attributes": {
            "POSITION": 26,
            "NORMAL": 27,
            "TEXCOORD_0": 28,
            "TANGENT": 29
          },
          "indices": 30,
          "material": 3
        }
      ]
    },
    {
      "name": "平面.021",
      "primitives": [
        {
          "attributes": {
            "POSITION": 31,
            "NORMAL": 32,
            "TEXCOORD_0": 33
          },
          "indices": 34,
          "material": 4
        }
      ]
    },
    {
      "name": "Vert.002",
      "primitives": [
        {
          "attributes": {
            "POSITION": 35,
            "NORMAL": 36,
            "TEXCOORD_0": 37,
            "TANGENT": 38
          },
          "indices": 39,
          "material": 5
        }
      ]
    },
    {
      "name": "Vert.002",
      "primitives": [
        {
          "attributes": {
            "POSITION": 40,
            "NORMAL": 41,
            "TEXCOORD_0": 42,
            "TANGENT": 43
          },
          "indices": 39,
          "material": 5
        }
      ]
    },
    {
      "name": "平面.015",
      "primitives": [
        {
          "attributes": {
            "POSITION": 44,
            "NORMAL": 45,
            "TEXCOORD_0": 46,
            "TANGENT": 47
          },
          "indices": 48,
          "material": 6
        }
      ]
    }
  ],
  "accessors": [
    {
      "bufferView": 0,
      "componentType": 5126,
      "count": 1303,
      "max": [
        4.999330997467041,
        0.7563168406486511,
        4.999330997467041
      ],
      "min": [
        -4.999330997467041,
        -2.7485086917877197,
        -4.999330997467041
      ],
      "type": "VEC3"
    },
    {
      "bufferView": 1,
      "componentType": 5126,
      "count": 1303,
      "type": "VEC3"
    },
    {
      "bufferView": 2,
      "componentType": 5126,
      "count": 1303,
      "type": "VEC2"
    },
    {
      "bufferView": 3,
      "componentType": 5123,
      "count": 6246,
      "type": "SCALAR"
    },
    {
      "bufferView": 4,
      "componentType": 5126,
      "count": 1194,
      "max": [
        13.231969833374023,
        0.471527636051178,
        7.2445573806762695
      ],
      "min": [
        -14.474958419799805,
        -5.207621097564697,
        -6.370479106903076
      ],
      "type": "VEC3"
    },
    {
      "bufferView": 5,
      "componentType": 5126,
      "count": 1194,
      "type": "VEC3"
    },
    {
      "bufferView": 6,
      "componentType": 5123,
      "count": 1242,
      "type": "SCALAR"
    },
    {
      "bufferView": 7,
      "componentType": 5123,
      "count": 414,
      "type": "SCALAR"
    },
    {
      "bufferView": 8,
      "componentType": 5126,
      "count": 30,
      "max": [
        1,
        0.15730148553848267,
        2.452026844024658
      ],
      "min": [
        -1,
        -0.10091537237167358,
        -0.9901288747787476
      ],
      "type": "VEC3"
    },
    {
      "bufferView": 9,
      "componentType": 5126,
      "count": 30,
      "type": "VEC3"
    },
    {
      "bufferView": 10,
      "componentType": 5126,
      "count": 30,
      "type": "VEC2"
    },
    {
      "bufferView": 11,
      "componentType": 5123,
      "count": 66,
      "type": "SCALAR"
    },
    {
      "bufferView": 12,
      "componentType": 5126,
      "count": 136,
      "max": [
        1.4365192651748657,
        1.0573434829711914,
        2.6922388076782227
      ],
      "min": [
        -1.4365192651748657,
        -0.10091537237167358,
        -1.228941798210144
      ],
      "type": "VEC3"
    },
    {
      "bufferView": 13,
      "componentType": 5126,
      "count": 136,
      "type": "VEC3"
    },
    {
      "bufferView": 14,
      "componentType": 5126,
      "count": 136,
      "type": "VEC2"
    },
    {
      "bufferView": 15,
      "componentType": 5123,
      "count": 228,
      "type": "SCALAR"
    },
    {
      "bufferView": 16,
      "componentType": 5126,
      "count": 1040,
      "max": [
        1.5121030807495117,
        1.0481431484222412,
        2.7438740730285645
      ],
      "min": [
        -1.5121030807495117,
        0.5886515974998474,
        -1.3123042583465576
      ],
      "type": "VEC3"
    },
    {
      "bufferView": 17,
      "componentType": 5126,
      "count": 1040,
      "type": "VEC3"
    },
    {
      "bufferView": 18,
      "componentType": 5126,
      "count": 1040,
      "type": "VEC2"
    },
    {
      "bufferView": 19,
      "componentType": 5126,
      "count": 1040,
      "type": "VEC4"
    },
    {
      "bufferView": 20,
      "componentType": 5123,
      "count": 1560,
      "type": "SCALAR"
    },
    {
      "bufferView": 21,
      "componentType": 5126,
      "count": 1040,
      "max": [
        1.2904438972473145,
        0.6273489594459534,
        2.635392665863037
      ],
      "min": [
        -1.2904438972473145,
        0.12931591272354126,
        -1.1799321174621582
      ],
      "type": "VEC3"
    },
    {
      "bufferView": 22,
      "componentType": 5126,
      "count": 1040,
      "type": "VEC3"
    },
    {
      "bufferView": 23,
      "componentType": 5126,
      "count": 1040,
      "type": "VEC2"
    },
    {
      "bufferView": 24,
      "componentType": 5126,
      "count": 1040,
      "type": "VEC4"
    },
    {
      "bufferView": 25,
      "componentType": 5123,
      "count": 1560,
      "type": "SCALAR"
    },
    {
      "bufferView": 26,
      "componentType": 5126,
      "count": 144,
      "max": [
        1.0852251052856445,
        0.24326753616333008,
        2.5181386470794678
      ],
      "min": [
        -1.0852251052856445,
        -0.15272554755210876,
        -1.0857571363449097
      ],
      "type": "VEC3"
    },
    {
      "bufferView": 27,
      "componentType": 5126,
      "count": 144,
      "type": "VEC3"
    },
    {
      "bufferView": 28,
      "componentType": 5126,
      "count": 144,
      "type": "VEC2"
    },
    {
      "bufferView": 29,
      "componentType": 5126,
      "count": 144,
      "type": "VEC4"
    },
    {
      "bufferView": 30,
      "componentType": 5123,
      "count": 216,
      "type": "SCALAR"
    },
    {
      "bufferView": 31,
      "componentType": 5126,
      "count": 224,
      "max": [
        1.0865788459777832,
        0.03750742971897125,
        0.5533037185668945
      ],
      "min": [
        -1.3615741729736328,
        -0.09623623639345169,
        -1.4466962814331055
      ],
      "type": "VEC3"
    },
    {
      "bufferView": 32,
      "componentType": 5126,
      "count": 224,
      "type": "VEC3"
    },
    {
      "bufferView": 33,
      "componentType": 5126,
      "count": 224,
      "type": "VEC2"
    },
    {
      "bufferView": 34,
      "componentType": 5123,
      "count": 342,
      "type": "SCALAR"
    },
    {
      "bufferView": 35,
      "componentType": 5126,
      "count": 163,
      "max": [
        0.04000000283122063,
        2.781212091445923,
        0.34893980622291565
      ],
      "min": [
        -0.04000000283122063,
        -1.1853218078613281,
        -1.853638768196106
      ],
      "type": "VEC3"
    },
    {
      "bufferView": 36,
      "componentType": 5126,
      "count": 163,
      "type": "VEC3"
    },
    {
      "bufferView": 37,
      "componentType": 5126,
      "count": 163,
      "type": "VEC2"
    },
    {
      "bufferView": 38,
      "componentType": 5126,
      "count": 163,
      "type": "VEC4"
    },
    {
      "bufferView": 39,
      "componentType": 5123,
      "count": 468,
      "type": "SCALAR"
    },
    {
      "bufferView": 40,
      "componentType": 5126,
      "count": 163,
      "max": [
        0.04000000283122063,
        2.781212091445923,
        0.34893980622291565
      ],
      "min": [
        -0.04000000283122063,
        -1.1853218078613281,
        -1.853638768196106
      ],
      "type": "VEC3"
    },
    {
      "bufferView": 41,
      "componentType": 5126,
      "count": 163,
      "type": "VEC3"
    },
    {
      "bufferView": 42,
      "componentType": 5126,
      "count": 163,
      "type": "VEC2"
    },
    {
      "bufferView": 43,
      "componentType": 5126,
      "count": 163,
      "type": "VEC4"
    },
    {
      "bufferView": 44,
      "componentType": 5126,
      "count": 384,
      "max": [
        0.5,
        0,
        0.5
      ],
      "min": [
        -0.5,
        -0.15054388344287872,
        -0.5
      ],
      "type": "VEC3"
    },
    {
      "bufferView": 45,
      "componentType": 5126,
      "count": 384,
      "type": "VEC3"
    },
    {
      "bufferView": 46,
      "componentType": 5126,
      "count": 384,
      "type": "VEC2"
    },
    {
      "bufferView": 47,
      "componentType": 5126,
      "count": 384,
      "type": "VEC4"
    },
    {
      "bufferView": 48,
      "componentType": 5123,
      "count": 564,
      "type": "SCALAR"
    }
  ],
  "bufferViews": [
    {
      "buffer": 0,
      "byteLength": 15636,
      "byteOffset": 0,
      "target": 34962
    },
    {
      "buffer": 0,
      "byteLength": 15636,
      "byteOffset": 15636,
      "target": 34962
    },
    {
      "buffer": 0,
      "byteLength": 10424,
      "byteOffset": 31272,
      "target": 34962
    },
    {
      "buffer": 0,
      "byteLength": 12492,
      "byteOffset": 41696,
      "target": 34963
    },
    {
      "buffer": 0,
      "byteLength": 14328,
      "byteOffset": 54188,
      "target": 34962
    },
    {
      "buffer": 0,
      "byteLength": 14328,
      "byteOffset": 68516,
      "target": 34962
    },
    {
      "buffer": 0,
      "byteLength": 2484,
      "byteOffset": 82844,
      "target": 34963
    },
    {
      "buffer": 0,
      "byteLength": 828,
      "byteOffset": 85328,
      "target": 34963
    },
    {
      "buffer": 0,
      "byteLength": 360,
      "byteOffset": 86156,
      "target": 34962
    },
    {
      "buffer": 0,
      "byteLength": 360,
      "byteOffset": 86516,
      "target": 34962
    },
    {
      "buffer": 0,
      "byteLength": 240,
      "byteOffset": 86876,
      "target": 34962
    },
    {
      "buffer": 0,
      "byteLength": 132,
      "byteOffset": 87116,
      "target": 34963
    },
    {
      "buffer": 0,
      "byteLength": 1632,
      "byteOffset": 87248,
      "target": 34962
    },
    {
      "buffer": 0,
      "byteLength": 1632,
      "byteOffset": 88880,
      "target": 34962
    },
    {
      "buffer": 0,
      "byteLength": 1088,
      "byteOffset": 90512,
      "target": 34962
    },
    {
      "buffer": 0,
      "byteLength": 456,
      "byteOffset": 91600,
      "target": 34963
    },
    {
      "buffer": 0,
      "byteLength": 12480,
      "byteOffset": 92056,
      "target": 34962
    },
    {
      "buffer": 0,
      "byteLength": 12480,
      "byteOffset": 104536,
      "target": 34962
    },
    {
      "buffer": 0,
      "byteLength": 8320,
      "byteOffset": 117016,
      "target": 34962
    },
    {
      "buffer": 0,
      "byteLength": 16640,
      "byteOffset": 125336,
      "target": 34962
    },
    {
      "buffer": 0,
      "byteLength": 3120,
      "byteOffset": 141976,
      "target": 34963
    },
    {
      "buffer": 0,
      "byteLength": 12480,
      "byteOffset": 145096,
      "target": 34962
    },
    {
      "buffer": 0,
      "byteLength": 12480,
      "byteOffset": 157576,
      "target": 34962
    },
    {
      "buffer": 0,
      "byteLength": 8320,
      "byteOffset": 170056,
      "target": 34962
    },
    {
      "buffer": 0,
      "byteLength": 16640,
      "byteOffset": 178376,
      "target": 34962
    },
    {
      "buffer": 0,
      "byteLength": 3120,
      "byteOffset": 195016,
      "target": 34963
    },
    {
      "buffer": 0,
      "byteLength": 1728,
      "byteOffset": 198136,
      "target": 34962
    },
    {
      "buffer": 0,
      "byteLength": 1728,
      "byteOffset": 199864,
      "target": 34962
    },
    {
      "buffer": 0,
      "byteLength": 1152,
      "byteOffset": 201592,
      "target": 34962
    },
    {
      "buffer": 0,
      "byteLength": 2304,
      "byteOffset": 202744,
      "target": 34962
    },
    {
      "buffer": 0,
      "byteLength": 432,
      "byteOffset": 205048,
      "target": 34963
    },
    {
      "buffer": 0,
      "byteLength": 2688,
      "byteOffset": 205480,
      "target": 34962
    },
    {
      "buffer": 0,
      "byteLength": 2688,
      "byteOffset": 208168,
      "target": 34962
    },
    {
      "buffer": 0,
      "byteLength": 1792,
      "byteOffset": 210856,
      "target": 34962
    },
    {
      "buffer": 0,
      "byteLength": 684,
      "byteOffset": 212648,
      "target": 34963
    },
    {
      "buffer": 0,
      "byteLength": 1956,
      "byteOffset": 213332,
      "target": 34962
    },
    {
      "buffer": 0,
      "byteLength": 1956,
      "byteOffset": 215288,
      "target": 34962
    },
    {
      "buffer": 0,
      "byteLength": 1304,
      "byteOffset": 217244,
      "target": 34962
    },
    {
      "buffer": 0,
      "byteLength": 2608,
      "byteOffset": 218548,
      "target": 34962
    },
    {
      "buffer": 0,
      "byteLength": 936,
      "byteOffset": 221156,
      "target": 34963
    },
    {
      "buffer": 0,
      "byteLength": 1956,
      "byteOffset": 222092,
      "target": 34962
    },
    {
      "buffer": 0,
      "byteLength": 1956,
      "byteOffset": 224048,
      "target": 34962
    },
    {
      "buffer": 0,
      "byteLength": 1304,
      "byteOffset": 226004,
      "target": 34962
    },
    {
      "buffer": 0,
      "byteLength": 2608,
      "byteOffset": 227308,
      "target": 34962
    },
    {
      "buffer": 0,
      "byteLength": 4608,
      "byteOffset": 229916,
      "target": 34962
    },
    {
      "buffer": 0,
      "byteLength": 4608,
      "byteOffset": 234524,
      "target": 34962
    },
    {
      "buffer": 0,
      "byteLength": 3072,
      "byteOffset": 239132,
      "target": 34962
    },
    {
      "buffer": 0,
      "byteLength": 6144,
      "byteOffset": 242204,
      "target": 34962
    },
    {
      "buffer": 0,
      "byteLength": 1128,
      "byteOffset": 248348,
      "target": 34963
    }
  ],
  "buffers": [
    {
      "byteLength": 249476,
      "uri": "island.bin"
    }
  ]
}