{
  "asset": {
    "generator": "Khronos glTF Blender I/O v4.1.63",
    "version": "2.0"
  },
  "scene": 0,
  "scenes": [
    {
      "name": "Scene",
      "nodes": [
        0,
        1,
        2
      ]
    }
  ],
  "nodes": [
    {
      "name": "Scene Collection"
    },
    {
      "mesh": 0,
      "name": "geometry_0"
    },
    {
      "name": "Collection"
    }
  ],
  "materials": [
    {
      "name": "Material_0",
      "pbrMetallicRoughness": {
        "baseColorTexture": {
          "index": 0
        },
        "metallicFactor": 0,
        "roughnessFactor": 0.8999999761581421
      }
    }
  ],
  "meshes": [
    {
      "name": "geometry_0",
      "primitives": [
        {
          "attributes": {
            "POSITION": 0,
            "NORMAL": 1,
            "TEXCOORD_0": 2
          },
          "indices": 3,
          "material": 0
        }
      ]
    }
  ],
  "textures": [
    {
      "sampler": 0,
      "source": 0
    }
  ],
  "images": [
    {
      "mimeType": "image/jpeg",
      "name": "Image_0",
      "uri": "Image_0.jpg"
    }
  ],
  "accessors": [
    {
      "bufferView": 0,
      "componentType": 5126,
      "count": 149938,
      "max": [
        0.16268017888069153,
        0.4057304561138153,
        0.38798463344573975
      ],
      "min": [
        -0.1725703328847885,
        -0.3969946503639221,
        -0.39523425698280334
      ],
      "type": "VEC3"
    },
    {
      "bufferView": 1,
      "componentType": 5126,
      "count": 149938,
      "type": "VEC3"
    },
    {
      "bufferView": 2,
      "componentType": 5126,
      "count": 149938,
      "type": "VEC2"
    },
    {
      "bufferView": 3,
      "componentType": 5125,
      "count": 150000,
      "type": "SCALAR"
    }
  ],
  "bufferViews": [
    {
      "buffer": 0,
      "byteLength": 1799256,
      "byteOffset": 0,
      "target": 34962
    },
    {
      "buffer": 0,
      "byteLength": 1799256,
      "byteOffset": 1799256,
      "target": 34962
    },
    {
      "buffer": 0,
      "byteLength": 1199504,
      "byteOffset": 3598512,
      "target": 34962
    },
    {
      "buffer": 0,
      "byteLength": 600000,
      "byteOffset": 4798016,
      "target": 34963
    }
  ],
  "samplers": [
    {
      "magFilter": 9729,
      "minFilter": 9987
    }
  ],
  "buffers": [
    {
      "byteLength": 5398016,
      "uri": "%E9%94%A6%E9%B2%A4.bin"
    }
  ]
}